<svg xmlns="http://www.w3.org/2000/svg" viewBox="0 0 520 430" role="img" aria-labelledby="title desc">
  <title id="title">龜殼占卜圖</title>
  <desc id="desc">深綠龜殼搭配金色甲骨紋與銅錢，作為易經卜卦介面使用。</desc>
  <defs>
    <radialGradient id="shellLight" cx="46%" cy="34%" r="62%">
      <stop offset="0" stop-color="#86a76c"/>
      <stop offset="0.42" stop-color="#416548"/>
      <stop offset="1" stop-color="#152e25"/>
    </radialGradient>
    <linearGradient id="rim" x1="80" y1="40" x2="430" y2="400" gradientUnits="userSpaceOnUse">
      <stop offset="0" stop-color="#c8a05c"/>
      <stop offset="0.48" stop-color="#2d4b37"/>
      <stop offset="1" stop-color="#0b1f19"/>
    </linearGradient>
    <filter id="shadow" x="-20%" y="-20%" width="140%" height="150%">
      <feDropShadow dx="0" dy="24" stdDeviation="18" flood-color="#000" flood-opacity=".35"/>
    </filter>
    <pattern id="grain" width="34" height="34" patternUnits="userSpaceOnUse">
      <path d="M0 20 C9 12 18 29 34 14" fill="none" stroke="#ead9a1" stroke-opacity=".09" stroke-width="2"/>
      <path d="M3 4 C13 11 20 -3 32 7" fill="none" stroke="#0c2018" stroke-opacity=".26" stroke-width="2"/>
    </pattern>
  </defs>
  <ellipse cx="260" cy="374" rx="168" ry="30" fill="#030807" opacity=".36"/>
  <path filter="url(#shadow)" d="M260 24 C374 24 468 113 481 217 C495 326 404 405 260 405 C116 405 25 326 39 217 C52 113 146 24 260 24Z" fill="url(#rim)"/>
  <path d="M260 45 C360 45 443 122 456 216 C469 314 390 382 260 382 C130 382 51 314 64 216 C77 122 160 45 260 45Z" fill="url(#shellLight)"/>
  <path d="M260 45 C360 45 443 122 456 216 C469 314 390 382 260 382 C130 382 51 314 64 216 C77 122 160 45 260 45Z" fill="url(#grain)"/>
  <path d="M260 58 L323 130 L300 212 L220 212 L197 130Z" fill="#5f804d" stroke="#dfc47b" stroke-opacity=".42" stroke-width="4"/>
  <path d="M197 130 L119 164 L90 242 L156 283 L220 212Z" fill="#3f6547" stroke="#dfc47b" stroke-opacity=".36" stroke-width="4"/>
  <path d="M323 130 L401 164 L430 242 L364 283 L300 212Z" fill="#315b42" stroke="#dfc47b" stroke-opacity=".36" stroke-width="4"/>
  <path d="M220 212 L156 283 L197 352 L260 371 L323 352 L364 283 L300 212Z" fill="#274d3a" stroke="#dfc47b" stroke-opacity=".38" stroke-width="4"/>
  <path d="M220 212 H300 M260 58 V371 M197 130 L323 352 M323 130 L197 352" stroke="#f1d78a" stroke-width="3" stroke-linecap="round" stroke-opacity=".24"/>
  <g fill="none" stroke="#f5d987" stroke-linecap="round" stroke-linejoin="round" stroke-opacity=".72">
    <path d="M238 154 C247 142 265 144 274 155 C263 160 253 160 238 154Z" stroke-width="5"/>
    <path d="M218 272 C239 252 285 252 307 272" stroke-width="5"/>
    <path d="M151 219 C174 211 188 223 198 242" stroke-width="4"/>
    <path d="M369 219 C346 211 332 223 322 242" stroke-width="4"/>
  </g>
  <g transform="translate(55 52)" opacity=".96">
    <circle cx="0" cy="0" r="29" fill="#b9873e" stroke="#f2d486" stroke-width="5"/>
    <rect x="-9" y="-9" width="18" height="18" rx="2" fill="#16251f"/>
  </g>
  <g transform="translate(459 302)" opacity=".92">
    <circle cx="0" cy="0" r="24" fill="#b9873e" stroke="#f2d486" stroke-width="4"/>
    <rect x="-7" y="-7" width="14" height="14" rx="2" fill="#16251f"/>
  </g>
</svg>
